<svg xmlns="http://www.w3.org/2000/svg" viewBox="0 0 800 640" role="img" aria-labelledby="title desc">
  <title id="title">Stock Market Trend Predictor preview</title>
  <desc id="desc">A market analytics illustration for the Stock Market Trend Predictor project.</desc>
  <defs>
    <linearGradient id="bg" x1="0" y1="0" x2="1" y2="1">
      <stop offset="0%" stop-color="#07191e" />
      <stop offset="55%" stop-color="#0c3844" />
      <stop offset="100%" stop-color="#08111f" />
    </linearGradient>
    <linearGradient id="panel" x1="0" y1="0" x2="0" y2="1">
      <stop offset="0%" stop-color="#103b4a" />
      <stop offset="100%" stop-color="#101f33" />
    </linearGradient>
    <linearGradient id="accent" x1="0" y1="0" x2="1" y2="1">
      <stop offset="0%" stop-color="#67e8f9" />
      <stop offset="100%" stop-color="#34d399" />
    </linearGradient>
    <radialGradient id="glow" cx="64%" cy="26%" r="58%">
      <stop offset="0%" stop-color="#22d3ee" stop-opacity="0.34" />
      <stop offset="100%" stop-color="#22d3ee" stop-opacity="0" />
    </radialGradient>
  </defs>
  <rect width="800" height="640" rx="40" fill="url(#bg)" />
  <rect width="800" height="640" rx="40" fill="url(#glow)" />
  <rect x="70" y="88" width="660" height="464" rx="34" fill="url(#panel)" stroke="rgba(255,255,255,0.12)" />
  <text x="104" y="170" fill="#f0fdfa" font-family="Inter, Arial, sans-serif" font-size="58" font-weight="700">Stock Market Trend Predictor</text>
  <text x="106" y="208" fill="#a5f3fc" font-family="Inter, Arial, sans-serif" font-size="22">Indicator-driven forecasting with feature engineering and classification</text>
  <rect x="108" y="240" width="188" height="34" rx="17" fill="rgba(8,20,28,0.52)" stroke="rgba(255,255,255,0.12)" />
  <text x="126" y="262" fill="#ccfbf1" font-family="Inter, Arial, sans-serif" font-size="15" font-weight="700">MA / RSI / MACD signals</text>
  <rect x="108" y="312" width="584" height="204" rx="30" fill="rgba(8,15,31,0.36)" stroke="rgba(255,255,255,0.12)" />
  <g opacity="0.14" stroke="#d1fae5">
    <path d="M136 352H664" />
    <path d="M136 400H664" />
    <path d="M136 448H664" />
    <path d="M136 496H664" />
    <path d="M196 334V516" />
    <path d="M286 334V516" />
    <path d="M376 334V516" />
    <path d="M466 334V516" />
    <path d="M556 334V516" />
  </g>
  <polyline points="150,468 208,438 258,452 322,394 392,406 452,360 522,332 598,286 652,252" fill="none" stroke="url(#accent)" stroke-width="8" stroke-linecap="round" stroke-linejoin="round" />
  <g fill="#0f172a" stroke-width="8">
    <line x1="198" y1="432" x2="198" y2="488" stroke="#67e8f9" />
    <rect x="184" y="446" width="28" height="26" rx="10" fill="#67e8f9" stroke="none" />
    <line x1="286" y1="402" x2="286" y2="468" stroke="#34d399" />
    <rect x="272" y="414" width="28" height="38" rx="10" fill="#34d399" stroke="none" />
    <line x1="374" y1="368" x2="374" y2="430" stroke="#67e8f9" />
    <rect x="360" y="380" width="28" height="36" rx="10" fill="#67e8f9" stroke="none" />
    <line x1="462" y1="338" x2="462" y2="410" stroke="#34d399" />
    <rect x="448" y="350" width="28" height="44" rx="10" fill="#34d399" stroke="none" />
    <line x1="550" y1="300" x2="550" y2="382" stroke="#67e8f9" />
    <rect x="536" y="316" width="28" height="50" rx="10" fill="#67e8f9" stroke="none" />
  </g>
  <rect x="582" y="228" width="110" height="60" rx="20" fill="rgba(8,20,28,0.5)" stroke="rgba(255,255,255,0.12)" />
  <text x="606" y="250" fill="#ccfbf1" font-family="Inter, Arial, sans-serif" font-size="13" font-weight="700">Signal confidence</text>
  <text x="606" y="278" fill="#f0fdfa" font-family="Inter, Arial, sans-serif" font-size="26" font-weight="700">0.84</text>
</svg>
