<svg xmlns="http://www.w3.org/2000/svg" viewBox="0 0 800 640" role="img" aria-labelledby="title desc">
  <title id="title">SkillSense preview</title>
  <desc id="desc">A premium dashboard illustration for the SkillSense project.</desc>
  <defs>
    <linearGradient id="bg" x1="0" y1="0" x2="1" y2="1">
      <stop offset="0%" stop-color="#0b1226" />
      <stop offset="55%" stop-color="#0f1f45" />
      <stop offset="100%" stop-color="#08111f" />
    </linearGradient>
    <linearGradient id="panel" x1="0" y1="0" x2="0" y2="1">
      <stop offset="0%" stop-color="#1f3f7a" stop-opacity="0.92" />
      <stop offset="100%" stop-color="#11213f" stop-opacity="0.94" />
    </linearGradient>
    <linearGradient id="accent" x1="0" y1="0" x2="1" y2="1">
      <stop offset="0%" stop-color="#8fd3ff" />
      <stop offset="100%" stop-color="#4cc9f0" />
    </linearGradient>
    <radialGradient id="glow" cx="50%" cy="35%" r="55%">
      <stop offset="0%" stop-color="#60a5fa" stop-opacity="0.42" />
      <stop offset="100%" stop-color="#60a5fa" stop-opacity="0" />
    </radialGradient>
  </defs>
  <rect width="800" height="640" rx="40" fill="url(#bg)" />
  <rect width="800" height="640" rx="40" fill="url(#glow)" />
  <g opacity="0.08" stroke="#cbd5e1">
    <path d="M60 122H740" />
    <path d="M60 252H740" />
    <path d="M60 382H740" />
    <path d="M60 512H740" />
    <path d="M170 70V570" />
    <path d="M340 70V570" />
    <path d="M510 70V570" />
    <path d="M680 70V570" />
  </g>
  <rect x="72" y="84" width="656" height="472" rx="34" fill="url(#panel)" stroke="rgba(255,255,255,0.12)" />
  <rect x="106" y="122" width="182" height="36" rx="18" fill="rgba(15,23,42,0.56)" stroke="rgba(255,255,255,0.12)" />
  <text x="124" y="145" fill="#dbeafe" font-family="Inter, Arial, sans-serif" font-size="16" font-weight="700">Career readiness insights</text>
  <text x="110" y="214" fill="#f8fafc" font-family="Inter, Arial, sans-serif" font-size="64" font-weight="700">SkillSense</text>
  <text x="110" y="252" fill="#93c5fd" font-family="Inter, Arial, sans-serif" font-size="22">AI-guided skill mapping and learning paths</text>
  <circle cx="224" cy="390" r="92" fill="rgba(8,15,31,0.4)" stroke="rgba(143,211,255,0.16)" />
  <circle cx="224" cy="390" r="74" fill="none" stroke="rgba(255,255,255,0.08)" stroke-width="18" />
  <path d="M224 316 A74 74 0 1 1 156 419" fill="none" stroke="url(#accent)" stroke-width="18" stroke-linecap="round" />
  <text x="224" y="384" text-anchor="middle" fill="#f8fafc" font-family="Inter, Arial, sans-serif" font-size="36" font-weight="700">78%</text>
  <text x="224" y="414" text-anchor="middle" fill="#94a3b8" font-family="Inter, Arial, sans-serif" font-size="16">Match score</text>
  <rect x="404" y="164" width="268" height="148" rx="26" fill="rgba(15,23,42,0.42)" stroke="rgba(255,255,255,0.12)" />
  <text x="430" y="200" fill="#e0e7ff" font-family="Inter, Arial, sans-serif" font-size="18" font-weight="700">Recommended path</text>
  <rect x="430" y="226" width="184" height="10" rx="5" fill="rgba(255,255,255,0.08)" />
  <rect x="430" y="226" width="132" height="10" rx="5" fill="url(#accent)" />
  <rect x="430" y="256" width="144" height="10" rx="5" fill="rgba(255,255,255,0.08)" />
  <rect x="430" y="256" width="114" height="10" rx="5" fill="#7dd3fc" />
  <rect x="430" y="286" width="208" height="10" rx="5" fill="rgba(255,255,255,0.08)" />
  <rect x="430" y="286" width="154" height="10" rx="5" fill="#38bdf8" />
  <rect x="404" y="342" width="268" height="164" rx="26" fill="rgba(8,15,31,0.44)" stroke="rgba(255,255,255,0.12)" />
  <text x="430" y="378" fill="#e0e7ff" font-family="Inter, Arial, sans-serif" font-size="18" font-weight="700">Priority skills</text>
  <rect x="432" y="418" width="34" height="52" rx="12" fill="#60a5fa" />
  <rect x="482" y="392" width="34" height="78" rx="12" fill="#7dd3fc" />
  <rect x="532" y="360" width="34" height="110" rx="12" fill="#93c5fd" />
  <rect x="582" y="330" width="34" height="140" rx="12" fill="#38bdf8" />
  <circle cx="682" cy="116" r="34" fill="rgba(15,23,42,0.56)" stroke="rgba(255,255,255,0.12)" />
  <text x="682" y="122" text-anchor="middle" fill="#dbeafe" font-family="Inter, Arial, sans-serif" font-size="14" font-weight="700">ML</text>
</svg>
